<svg xmlns="http://www.w3.org/2000/svg" viewBox="0 0 640 512" width="48" height="48" fill="#B0FFB0">
  <path d="M104 96c13.3 0 24 10.7 24 24V392c0 13.3-10.7 24-24 24s-24-10.7-24-24V120c0-13.3 10.7-24 24-24zm432 0c13.3 0 24 10.7 24 24V392c0 13.3-10.7 24-24 24s-24-10.7-24-24V120c0-13.3 10.7-24 24-24zM176 80c17.7 0 32 14.3 32 32V400c0 17.7-14.3 32-32 32s-32-14.3-32-32V112c0-17.7 14.3-32 32-32zm288 0c17.7 0 32 14.3 32 32V400c0 17.7-14.3 32-32 32s-32-14.3-32-32V112c0-17.7 14.3-32 32-32zM240 224h160v64H240V224z"/>
</svg>